<svg xmlns="http://www.w3.org/2000/svg" xmlns:xlink="http://www.w3.org/1999/xlink" version="1.1" width="378" height="375" viewBox="0 0 378 375">
<defs>
<clipPath id="clip_0">
<path transform="matrix(.24,0,0,.24,0,0)" d="M0 0H1575V1562.5H0Z" fill-rule="evenodd"/>
</clipPath>
<clipPath id="clip_1">
<path transform="matrix(.24,0,0,.24,0,0)" d="M10.427975 .000000000000101896149H1573.5542V1562.5H10.427975Z" fill-rule="evenodd"/>
</clipPath>
<clipPath id="clip_2">
<path transform="matrix(.24,0,0,.24,0,0)" d="M632.46127 926.8691H1209.773V988.3931H632.46127Z" fill-rule="evenodd"/>
</clipPath>
<clipPath id="clip_3">
<path transform="matrix(.24,0,0,.24,0,0)" d="M0 0H1575V1562.5H0Z" fill-rule="evenodd"/>
</clipPath>
</defs>
<g clip-path="url(#clip_0)">
<path transform="matrix(.75,0,0,.75,0,0)" d="M0 0H504V500H0Z" fill="#ffffff"/>
</g>
<g clip-path="url(#clip_1)">
<path transform="matrix(.86043646,0,0,.86043646,2.502714,.000000000000024455075)" d="M0 0H436V436H0Z" fill="#292929"/>
</g>
<g clip-path="url(#clip_2)">
<path transform="matrix(.057678798,0,0,.057678798,151.7907,222.44858)" d="M0 0H2402V256H0Z" fill="#00bf63"/>
</g>
<g clip-path="url(#clip_3)">
<text fill="#e4e4e4" xml:space="preserve" transform="matrix(1.5638859 0 0 1.5638859 49.332937 257.2922)" font-size="18.66" font-family="Quicksand"><tspan y="20" x="32.265626 38.272756 48.552179 58.775629 63.55145 73.84952 84.31549 95.30385 105.5273 112.392627 120.82507 130.17168 141.12271 147.98804">amar jay</tspan></text>
<text fill="#e4e2dd" xml:space="preserve" transform="matrix(1.5638859 0 0 1.5638859 48.298154 64.872859)" font-size="96.51" font-family="BRAKE"><tspan y="95" x="0">A</tspan></text>
</g>
</svg>
