<svg width="800" height="400" viewBox="0 0 800 400" xmlns="http://www.w3.org/2000/svg"><mask id="satori_om-id"><rect x="0" y="0" width="800" height="400" fill="#fff"/></mask><rect x="0" y="0" width="800" height="400" fill="#1d1f21"/><mask id="satori_om-id-0"><rect x="0" y="0" width="800" height="291" fill="#fff"/></mask><mask id="satori_om-id-0-0"><rect x="373" y="68" width="55" height="49" fill="#fff"/></mask><text x="373" y="108.08740730568526" width="54.13636363636363" height="48.409090909090914" font-weight="normal" font-style="normal" font-size="48" font-family="monospace" fill="#c9cacc">A_</text><mask id="satori_om-id-0-1"><rect x="200" y="155" width="400" height="49" fill="#fff"/></mask><text x="240" y="195.08740730568525" width="77.8465909090909" height="48.409090909090914" font-weight="bold" font-style="normal" font-size="48" font-family="roboto condensed" fill="#2bbc89">the</text><text x="317.8465909090909" y="195.08740730568525" width="11.130681818181817" height="48.409090909090914" font-weight="bold" font-style="normal" font-size="48" font-family="roboto condensed" fill="#2bbc89"> </text><text x="328.4318181818182" y="195.08740730568525" width="270.1875" height="48.409090909090914" font-weight="bold" font-style="normal" font-size="48" font-family="roboto condensed" fill="#2bbc89">underscore</text><mask id="satori_om-id-0-2"><rect x="370" y="221" width="60" height="2" fill="#fff"/></mask><path x="370" y="221" width="60" height="2" fill="#64748b" d="M371,221 h58 a1,1 0 0 1 1,1 v0 a1,1 0 0 1 -1,1 h-58 a1,1 0 0 1 -1,-1 v0 a1,1 0 0 1 1,-1"/><mask id="satori_om-id-1"><rect x="0" y="291" width="800" height="109" fill="#fff"/></mask><mask id="satori_om-id-1-0"><rect x="309" y="312" width="183" height="37" fill="#fff"/></mask><text x="309" y="340.08019774787147" width="36.09375" height="36.30681818181818" font-weight="bold" font-style="normal" font-size="30" font-family="roboto" fill="#c9cacc">by</text><text x="345.09375" y="340.08019774787147" width="6.956676136363637" height="36.30681818181818" font-weight="bold" font-style="normal" font-size="30" font-family="roboto" fill="#c9cacc"> </text><text x="352.59375" y="340.08019774787147" width="79.4637784090909" height="36.30681818181818" font-weight="bold" font-style="normal" font-size="30" font-family="roboto" fill="#c9cacc">Amar</text><text x="432.05752840909093" y="340.08019774787147" width="6.956676136363637" height="36.30681818181818" font-weight="bold" font-style="normal" font-size="30" font-family="roboto" fill="#c9cacc"> </text><text x="439.01420454545456" y="340.08019774787147" width="51.48792613636364" height="36.30681818181818" font-weight="bold" font-style="normal" font-size="30" font-family="roboto" fill="#c9cacc">Jay</text><mask id="satori_om-id-1-1"><rect x="282" y="365" width="237" height="19" fill="#fff"/></mask><text x="282" y="379.9761054655314" width="91.79545454545453" height="19.363636363636363" font-weight="normal" font-style="normal" font-size="16" font-family="roboto" fill="#c9cacc">Opinionated</text><text x="373.7954545454545" y="379.9761054655314" width="4.5" height="19.363636363636363" font-weight="normal" font-style="normal" font-size="16" font-family="roboto" fill="#c9cacc"> </text><text x="378.3863636363636" y="379.9761054655314" width="40.43181818181819" height="19.363636363636363" font-weight="normal" font-style="normal" font-size="16" font-family="roboto" fill="#c9cacc">ideas</text><text x="418.8181818181818" y="379.9761054655314" width="4.5" height="19.363636363636363" font-weight="normal" font-style="normal" font-size="16" font-family="roboto" fill="#c9cacc"> </text><text x="423.3181818181818" y="379.9761054655314" width="28.31818181818182" height="19.363636363636363" font-weight="normal" font-style="normal" font-size="16" font-family="roboto" fill="#c9cacc">and</text><text x="451.6363636363636" y="379.9761054655314" width="4.5" height="19.363636363636363" font-weight="normal" font-style="normal" font-size="16" font-family="roboto" fill="#c9cacc"> </text><text x="456.1363636363636" y="379.9761054655314" width="62.02272727272727" height="19.363636363636363" font-weight="normal" font-style="normal" font-size="16" font-family="roboto" fill="#c9cacc">whatnot</text></svg>